<?xml version="1.0" encoding="UTF-8"?>
<svg xmlns="http://www.w3.org/2000/svg" xmlns:xlink="http://www.w3.org/1999/xlink" width="193px" height="px" viewBox="0 0 194 64" version="1.1">
<defs>
<clipPath id="clip1">
  <path d="M 164 18 L 193.5 18 L 193.5 50 L 164 50 Z M 164 18 "/>
</clipPath>
<clipPath id="clip2">
  <path d="M 119 18 L 150 18 L 150 63.609375 L 119 63.609375 Z M 119 18 "/>
</clipPath>
<clipPath id="clip3">
  <path d="M 0.5 0.609375 L 49 0.609375 L 49 50 L 0.5 50 Z M 0.5 0.609375 "/>
</clipPath>
</defs>
<g id="surface1">
<g clip-path="url(#clip1)" clip-rule="nonzero">
<path style=" stroke:none;fill-rule:nonzero;fill:rgb(100%,18.823529%,18.431373%);fill-opacity:1;" d="M 187.488281 39.113281 L 192.84375 42.664062 C 191.105469 45.207031 186.949219 49.578125 179.765625 49.578125 C 170.839844 49.578125 164.195312 42.710938 164.195312 33.972656 C 164.195312 24.675781 170.910156 18.367188 179.011719 18.367188 C 187.160156 18.367188 191.152344 24.816406 192.445312 28.296875 L 193.148438 30.070312 L 172.15625 38.714844 C 173.753906 41.84375 176.242188 43.433594 179.765625 43.433594 C 183.285156 43.433594 185.726562 41.703125 187.488281 39.113281 Z M 171.027344 33.480469 L 185.046875 27.6875 C 184.273438 25.75 181.972656 24.371094 179.222656 24.371094 C 175.726562 24.371094 170.863281 27.453125 171.027344 33.480469 Z M 171.027344 33.480469 "/>
</g>
<path style=" stroke:none;fill-rule:nonzero;fill:rgb(12.54902%,69.411765%,35.294118%);fill-opacity:1;" d="M 154.074219 2.457031 L 160.835938 2.457031 L 160.835938 48.152344 L 154.074219 48.152344 Z M 154.074219 2.457031 "/>
<g clip-path="url(#clip2)" clip-rule="nonzero">
<path style=" stroke:none;fill-rule:nonzero;fill:rgb(21.176471%,52.54902%,96.862745%);fill-opacity:1;" d="M 143.414062 19.582031 L 149.941406 19.582031 L 149.941406 47.335938 C 149.941406 58.851562 143.105469 63.59375 135.027344 63.59375 C 127.421875 63.59375 122.84375 58.5 121.128906 54.367188 L 127.117188 51.890625 C 128.195312 54.4375 130.800781 57.449219 135.027344 57.449219 C 140.21875 57.449219 143.414062 54.25 143.414062 48.269531 L 143.414062 46.027344 L 143.179688 46.027344 C 141.628906 47.894531 138.667969 49.578125 134.910156 49.578125 C 127.070312 49.578125 119.882812 42.777344 119.882812 34.019531 C 119.882812 25.210938 127.070312 18.34375 134.910156 18.34375 C 138.644531 18.34375 141.628906 20.003906 143.179688 21.824219 L 143.414062 21.824219 Z M 143.882812 34.019531 C 143.882812 28.503906 140.195312 24.488281 135.5 24.488281 C 130.753906 24.488281 126.761719 28.503906 126.761719 34.019531 C 126.761719 39.460938 130.753906 43.410156 135.5 43.410156 C 140.195312 43.433594 143.882812 39.460938 143.882812 34.019531 Z M 143.882812 34.019531 "/>
</g>
<path style=" stroke:none;fill-rule:nonzero;fill:rgb(100%,18.823529%,18.431373%);fill-opacity:1;" d="M 82.757812 33.902344 C 82.757812 42.894531 75.714844 49.507812 67.074219 49.507812 C 58.429688 49.507812 51.386719 42.871094 51.386719 33.902344 C 51.386719 24.863281 58.429688 18.273438 67.074219 18.273438 C 75.714844 18.273438 82.757812 24.863281 82.757812 33.902344 Z M 75.902344 33.902344 C 75.902344 28.296875 71.816406 24.441406 67.074219 24.441406 C 62.328125 24.441406 58.242188 28.296875 58.242188 33.902344 C 58.242188 39.460938 62.328125 43.363281 67.074219 43.363281 C 71.816406 43.363281 75.902344 39.460938 75.902344 33.902344 Z M 75.902344 33.902344 "/>
<path style=" stroke:none;fill-rule:nonzero;fill:rgb(100%,72.941176%,25.098039%);fill-opacity:1;" d="M 117.015625 33.972656 C 117.015625 42.964844 109.972656 49.578125 101.332031 49.578125 C 92.6875 49.578125 85.644531 42.964844 85.644531 33.972656 C 85.644531 24.929688 92.6875 18.367188 101.332031 18.367188 C 109.972656 18.367188 117.015625 24.910156 117.015625 33.972656 Z M 110.136719 33.972656 C 110.136719 28.367188 106.050781 24.511719 101.308594 24.511719 C 96.5625 24.511719 92.476562 28.367188 92.476562 33.972656 C 92.476562 39.53125 96.5625 43.433594 101.308594 43.433594 C 106.074219 43.433594 110.136719 39.507812 110.136719 33.972656 Z M 110.136719 33.972656 "/>
<g clip-path="url(#clip3)" clip-rule="nonzero">
<path style=" stroke:none;fill-rule:nonzero;fill:rgb(21.176471%,52.54902%,96.862745%);fill-opacity:1;" d="M 25.601562 42.730469 C 15.761719 42.730469 8.0625 34.835938 8.0625 25.046875 C 8.0625 15.261719 15.761719 7.363281 25.601562 7.363281 C 30.910156 7.363281 34.785156 9.441406 37.648438 12.105469 L 42.367188 7.410156 C 38.375 3.601562 33.046875 0.707031 25.601562 0.707031 C 12.125 0.707031 0.78125 11.640625 0.78125 25.046875 C 0.78125 38.457031 12.125 49.390625 25.601562 49.390625 C 32.882812 49.390625 38.375 47.007812 42.675781 42.570312 C 47.089844 38.175781 48.449219 32.007812 48.449219 27.011719 C 48.449219 25.445312 48.261719 23.832031 48.050781 22.640625 L 25.601562 22.640625 L 25.601562 29.136719 L 41.59375 29.136719 C 41.125 33.203125 39.832031 35.980469 37.929688 37.875 C 35.628906 40.1875 31.988281 42.730469 25.601562 42.730469 Z M 25.601562 42.730469 "/>
</g>
</g>
</svg>
